<?xml version="1.0" encoding="UTF-8"?>
<svg width="30px" height="24px" viewBox="0 0 30 24" version="1.1" xmlns="http://www.w3.org/2000/svg" xmlns:xlink="http://www.w3.org/1999/xlink">
    <title>Group 7</title>
    <g id="Page-1" stroke="none" stroke-width="1" fill="none" fill-rule="evenodd">
        <g id="Product-" transform="translate(-1169.000000, -66.000000)" fill="#444444">
            <g id="Group-4" transform="translate(543.000000, 66.000000)">
                <g id="Group-7" transform="translate(626.000000, 0.000000)">
                    <path d="M10.2107432,22.2759602 C9.69777738,22.2759602 9.28257824,21.8601422 9.28257824,21.3477952 C9.28257824,20.8354481 9.69777738,20.4196302 10.2107432,20.4196302 C10.7237091,20.4196302 11.1389083,20.8354481 11.1389083,21.3477952 C11.1389083,21.8601422 10.7237091,22.2759602 10.2107432,22.2759602 M10.2107432,19.1820768 C9.01464794,19.1820768 8.04502489,20.1516999 8.04502489,21.3477952 C8.04502489,22.5438905 9.01464794,23.5135135 10.2107432,23.5135135 C11.4068385,23.5135135 12.3764616,22.5438905 12.3764616,21.3477952 C12.3764616,20.1516999 11.4068385,19.1820768 10.2107432,19.1820768" id="Fill-1"></path>
                    <path d="M21.9675,22.2759602 C21.4551529,22.2759602 21.039335,21.8601422 21.039335,21.3477952 C21.039335,20.8354481 21.4551529,20.4196302 21.9675,20.4196302 C22.4798471,20.4196302 22.895665,20.8354481 22.895665,21.3477952 C22.895665,21.8601422 22.4798471,22.2759602 21.9675,22.2759602 M21.9675,19.1820768 C20.7714047,19.1820768 19.8017817,20.1516999 19.8017817,21.3477952 C19.8017817,22.5438905 20.7714047,23.5135135 21.9675,23.5135135 C23.1635953,23.5135135 24.1332183,22.5438905 24.1332183,21.3477952 C24.1332183,20.1516999 23.1635953,19.1820768 21.9675,19.1820768" id="Fill-3"></path>
                    <path d="M26.8563926,9.72549858 L6.23442248,9.72549858 L5.64782219,6.80672902 L28.113128,6.80672902 L26.8563926,9.72549858 Z M23.5836828,17.3259324 L7.76218208,17.3259324 L7.14031152,14.2320491 L24.915909,14.2320491 L23.5836828,17.3259324 Z M6.42871835,10.6938841 L26.4393371,10.6938841 L25.3335832,13.2630448 L6.94539687,13.2630448 L6.42871835,10.6938841 Z M29.5684908,5.84762518 C29.4546358,5.67374893 29.2609587,5.56917568 29.052431,5.56917568 L5.39907397,5.56917568 L4.37933001,0.496444523 C4.32116501,0.208094595 4.06746657,0.000185633001 3.77292888,0.000185633001 L0.618405405,0.000185633001 C0.276840683,0.000185633001 0.000247510669,0.277397582 0.000247510669,0.618962304 C0.000247510669,0.960527027 0.276840683,1.23773898 0.618405405,1.23773898 L3.26676956,1.23773898 L6.64962162,18.0666081 C6.70778663,18.3555768 6.96148506,18.5634858 7.25540398,18.5634858 L23.9908378,18.5634858 C24.2377297,18.5634858 24.4611081,18.4162169 24.558256,18.1891259 L29.6198492,6.43298791 C29.7027653,6.24178592 29.6829644,6.02150142 29.5684908,5.84762518 L29.5684908,5.84762518 Z" id="Fill-5"></path>
                </g>
            </g>
        </g>
    </g>
</svg>