<?xml version="1.0" encoding="UTF-8"?>
<svg width="52px" height="52px" viewBox="0 0 52 52" version="1.1" xmlns="http://www.w3.org/2000/svg" xmlns:xlink="http://www.w3.org/1999/xlink">
    <title>chain</title>
    <g id="Blocks" stroke="none" stroke-width="1" fill="none" fill-rule="evenodd">
        <g id="Narrow-Text-Copy" transform="translate(-694.000000, -50.000000)" fill="#3C9F33" fill-rule="nonzero" stroke="#424242" stroke-width="0.5">
            <g id="chain" transform="translate(695.000000, 51.000000)">
                <path d="M13.7372727,19.5254545 C18.3463636,14.9181818 25.8436364,14.9190909 30.45,19.5254545 C31.16,20.2354545 31.16,21.3863636 30.45,22.0963636 C29.74,22.8063636 28.5890909,22.8063636 27.8790909,22.0963636 C26.3418182,20.56 24.2872727,19.7127273 22.0945455,19.7127273 C19.9009091,19.7127273 17.8463636,20.56 16.3090909,22.0963636 L16.3090909,22.0963636 L6.02363636,32.3818182 C2.83363636,35.5718182 2.83363636,40.7627273 6.02363636,43.9527273 C7.56090909,45.49 9.61636364,46.3372727 11.8090909,46.3372727 C14.0027273,46.3372727 16.0572727,45.49 17.5945455,43.9527273 L17.5945455,43.9527273 L24.6654545,36.8818182 C25.3754545,36.1718182 26.5254545,36.1718182 27.2354545,36.8818182 C27.9454545,37.5918182 27.9454545,38.7427273 27.2354545,39.4527273 L27.2354545,39.4527273 L20.1645455,46.5236364 C17.9409091,48.7481818 14.9727273,49.9736364 11.8081818,49.9736364 C8.64454545,49.9736364 5.67636364,48.7481818 3.45272727,46.5236364 C1.22818182,44.3 0.00272727273,41.3318182 0.00272727273,38.1681818 C0.00272727273,35.0036364 1.22818182,32.0354545 3.45181818,29.8118182 L3.45181818,29.8118182 Z M29.8081818,3.45545455 C34.4163636,-1.15 41.9136364,-1.15181818 46.5209091,3.45545455 C48.7454545,5.68 49.9709091,8.64727273 49.9709091,11.8127273 C49.9709091,14.9772727 48.7454545,17.9454545 46.5209091,20.1690909 L46.5209091,20.1690909 L35.5927273,31.0972727 C33.2890909,33.4009091 30.2627273,34.5527273 27.2363636,34.5527273 C24.21,34.5527273 21.1836364,33.4009091 18.88,31.0972727 C18.17,30.3881818 18.17,29.2363636 18.88,28.5263636 C19.59,27.8163636 20.7409091,27.8163636 21.4509091,28.5263636 C24.6418182,31.7154545 29.8318182,31.7154545 33.0227273,28.5263636 L33.0227273,28.5263636 L43.9490909,17.5972727 C45.4863636,16.06 46.3336364,14.0054545 46.3336364,11.8127273 C46.3336364,9.61909091 45.4863636,7.56454545 43.9490909,6.02727273 C42.4118182,4.49 40.3572727,3.64272727 38.1636364,3.64272727 C35.9709091,3.64272727 33.9163636,4.49 32.3790909,6.02636364 L32.3790909,6.02636364 L24.0227273,14.3827273 C23.3127273,15.0927273 22.1618182,15.0927273 21.4518182,14.3827273 C20.7418182,13.6727273 20.7418182,12.5218182 21.4518182,11.8118182 L21.4518182,11.8118182 Z" id="Combined-Shape"></path>
            </g>
        </g>
    </g>
</svg>