<?xml version="1.0" encoding="UTF-8"?>
<svg width="20px" height="21px" viewBox="0 0 20 21" version="1.1" xmlns="http://www.w3.org/2000/svg" xmlns:xlink="http://www.w3.org/1999/xlink">
    <title>iconfinder_basics-19_296814</title>
    <g id="Blocks" stroke="none" stroke-width="1" fill="none" fill-rule="evenodd">
        <g id="Footer" transform="translate(-1249.000000, -343.000000)" fill="#FFFFFF">
            <g id="Group-8" transform="translate(96.000000, 34.000000)">
                <g id="Group-7-Copy" transform="translate(923.000000, 299.000000)">
                    <g id="iconfinder_basics-19_296814" transform="translate(230.000000, 10.000000)">
                        <path d="M14.8333333,7.86666667 C14.8333333,4 11.7,0.9 7.86666667,0.9 C4,0.9 0.9,4.03333333 0.9,7.86666667 C0.9,11.7333333 4.03333333,14.8333333 7.86666667,14.8333333 C11.7,14.8666667 14.8333333,11.7333333 14.8333333,7.86666667 Z M20,19.4333333 L19.4,20.0333333 L13.0666667,13.7 C11.6666667,14.9333333 9.86666667,15.7 7.83333333,15.7 C3.5,15.7 0,12.2 0,7.86666667 C0,3.53333333 3.5,0.0333333333 7.83333333,0.0333333333 C12.1666667,0.0333333333 15.6666667,3.53333333 15.6666667,7.86666667 C15.6666667,9.86666667 14.9,11.7 13.6666667,13.1 L20,19.4333333 Z" id="Shape"></path>
                    </g>
                </g>
            </g>
        </g>
    </g>
</svg>