<?xml version="1.0" encoding="UTF-8"?>
<svg width="292px" height="567px" viewBox="0 0 292 567" version="1.1" xmlns="http://www.w3.org/2000/svg" xmlns:xlink="http://www.w3.org/1999/xlink">
    <title>Group 3 Copy 4</title>
    <defs>
        <polygon id="path-1" points="0.733613445 0 565.615966 0 565.615966 291 0.733613445 291"></polygon>
        <linearGradient x1="0%" y1="94.4853493%" x2="100%" y2="94.4853493%" id="linearGradient-3">
            <stop stop-color="#D9EDFB" stop-opacity="0.216291521" offset="0%"></stop>
            <stop stop-color="#D9EDFB" offset="100%"></stop>
        </linearGradient>
    </defs>
    <g id="Symbols" stroke="none" stroke-width="1" fill="none" fill-rule="evenodd">
        <g id="Group-3-Copy-4" transform="translate(146.000000, 283.869118) rotate(-90.000000) translate(-146.000000, -283.869118) translate(-137.000000, 138.369118)">
            <mask id="mask-2" fill="white">
                <use xlink:href="#path-1"></use>
            </mask>
            <g id="Clip-2"></g>
            <path d="M510.354733,176.509322 C497.304757,145.689091 478.035189,117.360441 454.050318,93.5996892 C430.079407,69.8214898 401.368762,50.6321269 369.925266,37.6228625 C338.495731,24.5717228 304.361266,17.7739635 270.020878,17.6448479 C235.68398,17.4354713 201.193511,23.9575516 169.125264,36.9772848 C137.046545,49.9516531 107.42844,69.3434133 82.4663042,93.718336 C57.4867169,118.072321 37.1735692,147.405979 23.184721,179.670909 C9.15399014,211.91839 1.53830487,247.065738 0.787905079,282.513191 C0.0828783027,247.069227 6.24662725,211.346094 19.1500133,178.016834 C32.0045362,144.677104 51.5114404,113.776612 76.2467115,87.60454 C100.954061,61.4080412 130.882796,39.9399633 163.956231,24.9555799 C197.012214,9.92234198 233.188464,1.4809765 269.727698,0.196800186 C306.249481,-1.16763715 343.235465,4.56579133 377.844602,17.3028662 C412.467699,29.9875969 444.668575,49.5817544 472.084344,74.6266821 C499.510584,99.6506722 522.190108,130.114963 538.199801,163.971155 C554.254866,197.795941 563.601706,234.949813 565.587648,272.581763 L565.591138,272.627128 C566.100712,282.251471 558.704911,290.466012 549.078852,290.975495 C539.452794,291.481488 531.233298,284.090495 530.727215,274.466152 C530.716744,274.249796 530.709764,273.967138 530.706273,273.750782 C530.315368,240.529699 523.443102,207.315595 510.354733,176.509322 Z" id="Fill-1" fill="url(#linearGradient-3)" mask="url(#mask-2)"></path>
        </g>
    </g>
</svg>