<?xml version="1.0" encoding="UTF-8"?>
<svg width="222px" height="61px" viewBox="0 0 222 61" version="1.1" xmlns="http://www.w3.org/2000/svg" xmlns:xlink="http://www.w3.org/1999/xlink">
    <title>Group 27</title>
    <defs>
        <polygon id="path-1" points="0.0501521739 0.53373913 25.1353696 0.53373913 25.1353696 36.5217391 0.0501521739 36.5217391"></polygon>
        <polygon id="path-3" points="0 0.147130435 7.66486957 0.147130435 7.66486957 7.81343478 0 7.81343478"></polygon>
    </defs>
    <g id="Page-1" stroke="none" stroke-width="1" fill="none" fill-rule="evenodd">
        <g id="Product-" transform="translate(-94.000000, -48.000000)">
            <g id="Group-27" transform="translate(94.000000, 48.000000)">
                <polygon id="Fill-1" fill="#002855" points="22.7823913 47.5126304 29.186087 47.5126304 29.186087 24.5965435 22.7823913 24.5965435"></polygon>
                <path d="M46.6248913,42.4846304 C43.0790217,42.4846304 40.2211957,39.5739783 40.2211957,36.0281087 C40.2211957,32.4822391 43.0790217,29.624413 46.6248913,29.624413 C50.1707609,29.624413 53.028587,32.4822391 53.028587,36.0281087 C53.028587,39.5739783 50.1707609,42.4846304 46.6248913,42.4846304 L46.6248913,42.4846304 Z M52.3411957,27.5068043 C50.2770652,25.1250652 47.8953261,23.8559348 44.7198913,23.8559348 C37.998587,23.8559348 33.6055435,29.5709348 33.6055435,35.9746304 C33.6055435,42.5374565 37.998587,48.2531087 44.8783696,48.2531087 C47.8953261,48.2531087 50.5940217,46.9826739 52.3411957,44.4952826 L52.3411957,47.5122391 L58.7977174,47.5122391 L58.7977174,7.87245652 L52.3411957,7.87245652 L52.3411957,27.5068043 Z" id="Fill-2" fill="#002855"></path>
                <path d="M70.2566739,33.0108913 C70.7862391,30.2071957 72.6912391,28.4065435 75.6018913,28.4065435 C78.6188478,28.4065435 80.4710217,30.1530652 81.1062391,33.0108913 L70.2566739,33.0108913 Z M75.4962391,23.8556739 C68.1397174,23.8556739 63.4825435,28.7248043 63.4825435,36.0278478 C63.4825435,43.4906739 68.3510217,48.2528478 75.7610217,48.2528478 C80.9477609,48.2528478 85.0225435,46.0302391 87.0338478,41.1089348 L81.1062391,40.1554565 C79.7829783,42.2202391 78.1427609,43.2265435 75.6553696,43.2265435 C71.8440652,43.2265435 70.1503696,40.6328478 70.0447174,37.0869783 L87.1923261,37.0869783 L87.1923261,36.2398043 C87.1923261,28.9361087 83.0647174,23.8556739 75.4962391,23.8556739 L75.4962391,23.8556739 Z" id="Fill-4" fill="#002855"></path>
                <g id="Group-8" transform="translate(90.652174, 23.322196)">
                    <mask id="mask-2" fill="white">
                        <use xlink:href="#path-1"></use>
                    </mask>
                    <g id="Clip-7"></g>
                    <path d="M13.0695,19.1624348 C9.52297826,19.1624348 6.66645652,16.2517826 6.66645652,12.705913 C6.66645652,9.16004348 9.52297826,6.30221739 13.0695,6.30221739 C16.6160217,6.30221739 19.4725435,9.16004348 19.4725435,12.705913 C19.4725435,16.2517826 16.6160217,19.1624348 13.0695,19.1624348 L13.0695,19.1624348 Z M18.6801522,4.23743478 C16.6688478,1.69786957 14.550587,0.53373913 11.2701522,0.53373913 C4.28471739,0.53373913 0.0501521739,6.46134783 0.0501521739,13.0228696 C0.0501521739,19.4806957 4.17841304,24.930913 10.9525435,24.930913 C14.3392826,24.930913 16.5103696,23.6076522 18.6801522,21.120913 L18.6801522,24.5604783 C18.6801522,28.2654783 17.0399348,31.0704783 13.0160217,31.0704783 C10.1595,31.0704783 8.25384783,29.6943913 7.56515217,26.8893913 L0.631891304,26.8893913 C1.2671087,33.1339565 6.93058696,36.522 12.8040652,36.522 C16.4568913,36.522 20.108413,35.3578696 22.5436304,32.4993913 C24.9781957,29.6422174 25.1353696,26.9428696 25.1353696,23.3435217 L25.1353696,1.27395652 L18.6801522,1.27395652 L18.6801522,4.23743478 Z" id="Fill-6" fill="#002855" mask="url(#mask-2)"></path>
                </g>
                <polygon id="Fill-9" fill="#002855" points="133.255109 37.6158913 126.374022 24.5965435 118.9125 24.5965435 129.761413 44.0717609 121.347065 59.7904565 128.59663 59.7904565 147.120326 24.5965435 139.81663 24.5965435"></polygon>
                <path d="M14.9103913,-4.63397436e-15 C12.794087,-4.63397436e-15 11.0782174,1.71586957 11.0782174,3.83347826 C11.0782174,5.94978261 12.794087,7.665 14.9103913,7.665 C17.0273478,7.665 18.7432174,5.94978261 18.7432174,3.83347826 C18.7432174,1.71586957 17.0273478,-4.63397436e-15 14.9103913,-4.63397436e-15" id="Fill-11" fill="#C8102E"></path>
                <path d="M14.9103913,11.0780217 C12.794087,11.0780217 11.0782174,12.7938913 11.0782174,14.9108478 C11.0782174,17.0271522 12.794087,18.7443261 14.9103913,18.7443261 C17.0273478,18.7443261 18.7432174,17.0271522 18.7432174,14.9108478 C18.7432174,12.7938913 17.0273478,11.0780217 14.9103913,11.0780217" id="Fill-13" fill="#C8102E"></path>
                <path d="M14.9103913,22.1561087 C12.794087,22.1561087 11.0782174,23.8726304 11.0782174,25.9889348 C11.0782174,28.1058913 12.794087,29.8217609 14.9103913,29.8217609 C17.0273478,29.8217609 18.7432174,28.1058913 18.7432174,25.9889348 C18.7432174,23.8726304 17.0273478,22.1561087 14.9103913,22.1561087" id="Fill-15" fill="#C8102E"></path>
                <path d="M25.9890652,11.0780217 C23.8721087,11.0780217 22.1568913,12.7938913 22.1568913,14.9108478 C22.1568913,17.0271522 23.8721087,18.7443261 25.9890652,18.7443261 C28.1053696,18.7443261 29.8218913,17.0271522 29.8218913,14.9108478 C29.8218913,12.7938913 28.1053696,11.0780217 25.9890652,11.0780217" id="Fill-17" fill="#C8102E"></path>
                <g id="Group-21" transform="translate(0.000000, 10.930891)">
                    <mask id="mask-4" fill="white">
                        <use xlink:href="#path-3"></use>
                    </mask>
                    <g id="Clip-20"></g>
                    <path d="M3.83269565,0.147130435 C1.71573913,0.147130435 -0.000130434783,1.863 -0.000130434783,3.97995652 C-0.000130434783,6.09626087 1.71573913,7.81343478 3.83269565,7.81343478 C5.94965217,7.81343478 7.66486957,6.09626087 7.66486957,3.97995652 C7.66486957,1.863 5.94965217,0.147130435 3.83269565,0.147130435" id="Fill-19" fill="#C8102E" mask="url(#mask-4)"></path>
                </g>
                <path d="M152.649978,23.8868478 L153.875413,23.8868478 L153.875413,25.4501087 C154.82563,23.8255435 156.266935,23.6116304 157.125848,23.6116304 C159.57737,23.6116304 160.374978,25.2361957 160.620196,25.8798913 C161.325196,24.3772826 162.673891,23.6116304 164.329109,23.6116304 C165.708457,23.6116304 166.59737,24.1020652 167.149761,24.6531522 C168.161283,25.6646739 168.222587,27.0446739 168.222587,28.0561957 L168.222587,54.4568478 L166.997152,54.4568478 L166.997152,28.0561957 C166.997152,27.228587 166.935196,26.186413 166.260848,25.481413 C165.708457,24.8983696 164.973457,24.7757609 164.390413,24.7757609 C161.079978,24.7757609 161.049326,28.0868478 161.049326,28.8538043 L161.049326,36.3942391 L159.823239,36.3942391 L159.823239,28.3627174 C159.823239,27.5651087 159.761283,24.7757609 157.064543,24.7757609 C154.887587,24.7757609 153.875413,26.6761957 153.875413,29.1603261 L153.875413,36.3942391 L152.649978,36.3942391 L152.649978,23.8868478 Z" id="Fill-22" fill="#C8102E"></path>
                <path d="M171.727043,30.0490435 C171.727043,32.8690435 173.473565,35.5664348 176.631391,35.5664348 C179.758565,35.5664348 181.475087,32.9296957 181.475087,30.0490435 C181.475087,26.3394783 178.747043,24.7755652 176.601391,24.7755652 C174.117261,24.7755652 171.727043,26.646 171.727043,30.0490435 L171.727043,30.0490435 Z M181.413783,23.8866522 L182.63987,23.8866522 L182.63987,36.3940435 L181.413783,36.3940435 L181.413783,34.157087 C180.157043,36.0875217 178.164,36.7312174 176.539435,36.7312174 C173.259652,36.7312174 170.438348,34.2483913 170.438348,30.141 C170.438348,26.2781739 172.891826,23.6114348 176.539435,23.6114348 C178.501826,23.6114348 180.218348,24.3777391 181.413783,26.0642609 L181.413783,23.8866522 Z" id="Fill-24" fill="#C8102E"></path>
                <path d="M186.511435,23.8868478 L187.737522,23.8868478 L187.737522,25.5120652 C188.197957,24.4392391 189.148174,23.6116304 190.496217,23.6116304 C190.833391,23.6116304 191.354478,23.6722826 191.814913,23.9181522 L191.749696,24.9277174 C191.627087,24.836413 190.913609,24.5859783 190.361217,24.5859783 C187.848391,24.5859783 187.737522,28.1175 187.737522,29.6807609 L187.737522,36.3942391 L186.511435,36.3942391 L186.511435,23.8868478 Z" id="Fill-26" fill="#C8102E"></path>
                <polygon id="Fill-28" fill="#C8102E" points="195.252065 17.154913 195.252065 29.2514348 200.402283 23.8866522 201.996848 23.8866522 196.724674 29.3133913 203.71337 36.3946957 202.058152 36.3946957 195.895761 30.2016522 195.252065 30.8453478 195.252065 36.3946957 194.025978 36.3946957 194.025978 17.154913"></polygon>
                <path d="M213.892565,29.129087 C213.585391,26.6462609 211.746913,24.7758261 209.263435,24.7758261 C206.719957,24.7758261 204.910826,26.7075652 204.573652,29.129087 L213.892565,29.129087 Z M204.481696,30.2945217 C204.481696,33.4823478 206.811261,35.5666957 209.448,35.5666957 C211.471043,35.5666957 213.003652,34.3712609 213.800609,32.7160435 L214.842783,33.329087 C214.107783,34.739087 212.452565,36.7314783 209.356043,36.7314783 C205.462565,36.7314783 203.194304,33.8501739 203.194304,30.201913 C203.194304,25.8486522 206.19887,23.6116957 209.263435,23.6116957 C212.635174,23.6116957 215.181261,26.309087 215.181261,30.2945217 L204.481696,30.2945217 Z" id="Fill-30" fill="#C8102E"></path>
                <polygon id="Fill-32" fill="#C8102E" points="219.232826 25.0523478 219.232826 36.3943043 218.005435 36.3943043 218.005435 25.0523478 216.103696 25.0523478 216.103696 23.886913 218.005435 23.886913 218.005435 20.4427826 219.232826 20.4427826 219.232826 23.886913 221.921087 23.886913 221.921087 25.0523478"></polygon>
                <path d="M163.562739,47.553913 C163.562739,44.1195652 161.293826,42.2804348 158.719696,42.2804348 C156.26687,42.2804348 153.814696,44.0282609 153.814696,47.4926087 C153.814696,50.6191304 155.531217,53.0713043 158.688391,53.0713043 C161.846217,53.0713043 163.562739,50.6191304 163.562739,47.553913 L163.562739,47.553913 Z M153.875348,59.816087 L152.649913,59.816087 L152.649913,41.3915217 L153.875348,41.3915217 L153.875348,43.5684783 C155.071435,41.9432609 156.787957,41.1156522 158.781,41.1156522 C162.551217,41.1156522 164.850783,43.9369565 164.850783,47.553913 C164.850783,51.2321739 162.520565,54.236087 158.719696,54.236087 C155.623826,54.236087 154.243826,52.2743478 153.875348,51.6613043 L153.875348,59.816087 Z" id="Fill-34" fill="#C8102E"></path>
                <path d="M171.7245,47.553913 C171.7245,50.3732609 173.471022,53.0713043 176.628848,53.0713043 C179.756022,53.0713043 181.472543,50.4345652 181.472543,47.553913 C181.472543,43.8443478 178.7445,42.2804348 176.598848,42.2804348 C174.114717,42.2804348 171.7245,44.1508696 171.7245,47.553913 L171.7245,47.553913 Z M181.411891,41.3915217 L182.637326,41.3915217 L182.637326,53.898913 L181.411891,53.898913 L181.411891,51.6613043 C180.1545,53.5923913 178.161457,54.236087 176.536891,54.236087 C173.257109,54.236087 170.436457,51.7532609 170.436457,47.6452174 C170.436457,43.7830435 172.889283,41.1156522 176.536891,41.1156522 C178.499283,41.1156522 180.215804,41.8819565 181.411891,43.5684783 L181.411891,41.3915217 Z" id="Fill-36" fill="#C8102E"></path>
                <path d="M195.61637,44.3347826 C194.788109,43.3845652 193.347457,42.2804348 191.294413,42.2804348 C188.229196,42.2804348 186.083543,44.6413043 186.083543,47.7065217 C186.083543,51.2934783 188.810935,53.0713043 191.232457,53.0713043 C193.224848,53.0713043 194.788109,51.9071739 195.76963,50.8336957 L195.76963,52.488913 C194.942674,53.2245652 193.408761,54.236087 191.202457,54.236087 C187.431587,54.236087 184.794848,51.4467391 184.794848,47.7378261 C184.794848,44.0282609 187.278978,41.1156522 191.294413,41.1156522 C192.182674,41.1156522 193.899848,41.268913 195.61637,42.7095652 L195.61637,44.3347826 Z" id="Fill-38" fill="#C8102E"></path>
                <path d="M208.166283,46.6336304 C207.859761,44.1508043 206.02063,42.2803696 203.537152,42.2803696 C200.993674,42.2803696 199.184543,44.2121087 198.84737,46.6336304 L208.166283,46.6336304 Z M198.756065,47.7990652 C198.756065,50.9868913 201.084978,53.0718913 203.721717,53.0718913 C205.744761,53.0718913 207.27737,51.8758043 208.074326,50.220587 L209.1165,50.8336304 C208.3815,52.2442826 206.726283,54.2360217 203.630413,54.2360217 C199.736283,54.2360217 197.468022,51.3547174 197.468022,47.7071087 C197.468022,43.3531957 200.472587,41.1162391 203.537152,41.1162391 C206.909543,41.1162391 209.454978,43.8136304 209.454978,47.7990652 L198.756065,47.7990652 Z" id="Fill-40" fill="#C8102E"></path>
            </g>
        </g>
    </g>
</svg>