<?xml version="1.0" encoding="UTF-8"?>
<svg width="48px" height="50px" viewBox="0 0 48 50" version="1.1" xmlns="http://www.w3.org/2000/svg" xmlns:xlink="http://www.w3.org/1999/xlink">
    <title>share</title>
    <g id="Blocks" stroke="none" stroke-width="1" fill="none" fill-rule="evenodd">
        <g id="Narrow-Text-Copy" transform="translate(-1121.000000, -51.000000)" fill="#3C9F33" fill-rule="nonzero">
            <g id="share" transform="translate(1121.000000, 51.000000)">
                <path d="M38.8852747,32.0954357 C35.9630769,32.0954357 33.3573626,33.4647303 31.6905495,35.5809129 L17.7336264,27.9149378 C18.0606593,26.9917012 18.24,25.9958506 18.24,24.9688797 C18.24,23.9315353 18.0606593,22.9460581 17.7230769,22.0124481 L31.6694505,14.3568465 C33.3257143,16.4834025 35.941978,17.8630705 38.8747253,17.8630705 C43.8751648,17.8630705 47.9578022,13.8589212 47.9578022,8.93153527 C47.9578022,4.00414938 43.8857143,0 38.8747253,0 C33.8637363,0 29.7916484,4.00414938 29.7916484,8.93153527 C29.7916484,9.96887967 29.970989,10.9647303 30.3085714,11.8879668 L16.3727473,19.5435685 C14.7164835,17.406639 12.1002198,16.0373444 9.16747253,16.0373444 C4.16703297,16.0373444 0.0843956044,20.0414938 0.0843956044,24.9688797 C0.0843956044,29.8962656 4.16703297,33.9004149 9.17802198,33.9004149 C12.1107692,33.9004149 14.727033,32.5207469 16.3938462,30.3838174 L30.3402198,38.0497925 C30.0026374,38.9834025 29.8127473,39.9896266 29.8127473,41.026971 C29.8127473,45.9439834 33.8848352,49.9585062 38.8958242,49.9585062 C43.9068132,49.9585062 47.9789011,45.9543568 47.9789011,41.026971 C47.9789011,36.0995851 43.8962637,32.0954357 38.8852747,32.0954357 Z M38.8852747,2.81120332 C42.3243956,2.81120332 45.12,5.56016598 45.12,8.94190871 C45.12,12.3236515 42.3243956,15.0726141 38.8852747,15.0726141 C35.4461538,15.0726141 32.6505495,12.3236515 32.6505495,8.94190871 C32.6505495,5.56016598 35.4567033,2.81120332 38.8852747,2.81120332 Z M9.17802198,31.0995851 C5.7389011,31.0995851 2.9432967,28.3506224 2.9432967,24.9688797 C2.9432967,21.5871369 5.7389011,18.8381743 9.17802198,18.8381743 C12.6171429,18.8381743 15.4127473,21.5871369 15.4127473,24.9688797 C15.4127473,28.3506224 12.6065934,31.0995851 9.17802198,31.0995851 Z M38.8852747,47.1473029 C35.4461538,47.1473029 32.6505495,44.3983402 32.6505495,41.0165975 C32.6505495,37.6348548 35.4461538,34.8858921 38.8852747,34.8858921 C42.3243956,34.8858921 45.12,37.6348548 45.12,41.0165975 C45.12,44.3983402 42.3243956,47.1473029 38.8852747,47.1473029 Z" id="Shape"></path>
            </g>
        </g>
    </g>
</svg>