<?xml version="1.0" encoding="UTF-8"?>
<svg width="341px" height="662px" viewBox="0 0 341 662" version="1.1" xmlns="http://www.w3.org/2000/svg" xmlns:xlink="http://www.w3.org/1999/xlink">
    <title>Group 3 Copy 4</title>
    <defs>
        <polygon id="path-1" points="0.857142857 0 660.857143 0 660.857143 340 0.857142857 340"></polygon>
        <linearGradient x1="0%" y1="94.4853493%" x2="100%" y2="94.4853493%" id="linearGradient-3">
            <stop stop-color="#D9EDFB" stop-opacity="0.216291521" offset="0%"></stop>
            <stop stop-color="#D9EDFB" offset="100%"></stop>
        </linearGradient>
    </defs>
    <g id="Blocks" stroke="none" stroke-width="1" fill="none" fill-rule="evenodd">
        <g id="Tab-Content-Selected" transform="translate(-662.000000, -37.000000)">
            <g id="Group-12" transform="translate(662.000000, 37.000000)">
                <g id="Group-3-Copy-4" transform="translate(170.500000, 331.000000) rotate(-90.000000) translate(-170.500000, -331.000000) translate(-160.000000, 161.000000)">
                    <mask id="mask-2" fill="white">
                        <use xlink:href="#path-1"></use>
                    </mask>
                    <g id="Clip-2"></g>
                    <path d="M596.290754,206.230823 C581.043359,170.220931 558.529087,137.122164 530.505526,109.360462 C502.498276,81.578373 468.953193,59.1578115 432.215088,43.9579837 C395.493294,28.7092294 355.611101,20.7668302 315.488311,20.6159735 C275.369598,20.3713411 235.071457,27.991641 197.603401,43.2037004 C160.123111,58.3627562 125.517765,81.0197956 96.3523829,109.499087 C67.1666108,137.953915 43.4330361,172.226917 27.0886775,209.924773 C10.6953837,247.602243 1.79733215,288.667872 0.920576381,330.084141 C0.0968337557,288.671949 7.29846483,246.933581 22.374586,207.992177 C37.3936162,169.038541 60.1851881,132.934873 89.0855049,102.35582 C117.953198,71.7482268 152.92148,46.6652492 191.563981,29.1577222 C230.186092,11.5931143 272.453876,1.73035055 315.145764,0.229938362 C357.817264,-1.36424959 401.031128,5.33460156 441.467919,20.2164072 C481.921023,35.0370548 519.54404,57.9305722 551.57621,87.192687 C583.620613,116.430339 610.119027,152.024356 628.824509,191.581419 C647.583005,231.101786 658.503711,274.511809 660.824056,318.48041 L660.828134,318.533414 C661.423512,329.778351 652.78237,339.376096 641.535429,339.971368 C630.288488,340.562563 620.684954,331.927039 620.093653,320.682102 C620.081419,320.429315 620.073263,320.099061 620.069186,319.846274 C619.612457,281.031264 611.583005,242.224407 596.290754,206.230823 Z" id="Fill-1" fill="url(#linearGradient-3)" opacity="0.51234654" mask="url(#mask-2)"></path>
                </g>
            </g>
        </g>
    </g>
</svg>