<?xml version="1.0" encoding="UTF-8"?>
<svg width="25px" height="25px" viewBox="0 0 25 25" version="1.1" xmlns="http://www.w3.org/2000/svg" xmlns:xlink="http://www.w3.org/1999/xlink">
    <title>iconfinder_check-mark-checklist-complete-done_3643781</title>
    <g id="Blocks" stroke="none" stroke-width="1" fill="none" fill-rule="evenodd">
        <g id="2-Column-List" transform="translate(-270.000000, -256.000000)" fill="#005EA0" fill-rule="nonzero">
            <g id="iconfinder_check-mark-checklist-complete-done_3643781" transform="translate(270.000000, 256.000000)">
                <path d="M12.5,25 C5.59644063,25 0,19.4035594 0,12.5 C0,5.59644063 5.59644063,0 12.5,0 C19.4035594,0 25,5.59644063 25,12.5 C25,19.4035594 19.4035594,25 12.5,25 Z M12.5,1.66666667 C6.51691521,1.66666667 1.66666667,6.51691521 1.66666667,12.5 C1.66666667,18.4830848 6.51691521,23.3333333 12.5,23.3333333 C18.4830848,23.3333333 23.3333333,18.4830848 23.3333333,12.5 C23.3333333,9.62682136 22.1919676,6.87132064 20.1603235,4.83967654 C18.1286794,2.80803244 15.3731786,1.66666667 12.5,1.66666667 Z" id="Shape"></path>
                <path d="M10.5583333,17.5 C10.3273624,17.499257 10.1070598,17.402686 9.95,17.2333333 L6.05833333,13.0666667 C5.78242479,12.7264097 5.81706284,12.2306218 6.13760395,11.9320356 C6.45814505,11.6334494 6.95514108,11.6340164 7.275,11.9333333 L10.5583333,15.4416667 L17.725,7.76666667 C17.9211193,7.52480772 18.2357178,7.41246465 18.5406752,7.47538921 C18.8456326,7.53831377 19.0900683,7.76600734 19.1744358,8.06574161 C19.2588034,8.36547589 19.1690264,8.68724178 18.9416667,8.9 L11.1666667,17.2333333 C11.0096068,17.402686 10.7893042,17.499257 10.5583333,17.5 Z" id="Path"></path>
            </g>
        </g>
    </g>
</svg>